<svg width="120" height="28" viewBox="0 0 120 28" fill="none" xmlns="http://www.w3.org/2000/svg">
<rect width="120" height="28" fill="#131417"/>
<path d="M25.0281 10.563C25.9259 10.563 26.7492 10.889 27.388 11.4287L28.2576 10.3867C27.3541 9.621 26.21 9.20154 25.0281 9.20265C22.2558 9.20265 20 11.47 20 14.2564C20 17.0421 22.2558 19.3086 25.0281 19.3086C26.21 19.3097 27.354 18.8902 28.2576 18.1246L27.388 17.0825C26.7277 17.6421 25.8917 17.9487 25.0281 17.9482C24.054 17.9472 23.12 17.5579 22.4311 16.8656C21.7422 16.1734 21.3547 15.2347 21.3535 14.2556C21.3547 13.2765 21.7422 12.3379 22.4311 11.6457C23.12 10.9534 24.054 10.5641 25.0281 10.563ZM52.8589 17.6566H50.8286V10.8547H52.8589C53.7561 10.8555 54.6164 11.214 55.2509 11.8516C55.8854 12.4892 56.2423 13.3538 56.2434 14.2556C56.2423 15.1575 55.8854 16.022 55.2509 16.6597C54.6164 17.2973 53.7561 17.6558 52.8589 17.6566ZM52.8589 9.49427H50.1519C49.9726 9.49427 49.8007 9.56586 49.6739 9.69328C49.5471 9.82069 49.4759 9.99351 49.4759 10.1737V18.3368C49.4759 18.7124 49.7782 19.0178 50.1519 19.0178H52.8589C54.1151 19.0166 55.3195 18.5145 56.2078 17.6216C57.0961 16.7288 57.5956 15.5183 57.5968 14.2556C57.5954 12.9932 57.0958 11.7828 56.2075 10.8901C55.3193 9.99749 54.115 9.49548 52.8589 9.49427ZM61.2608 10.1745V18.3376C61.2608 18.7132 61.5646 19.017 61.9383 19.017H67.5778V17.6574H62.6151V14.9358H65.7732V13.5755H62.6151V10.8547H67.5778V9.49427H61.9383C61.759 9.49427 61.587 9.56583 61.4601 9.69323C61.3332 9.82063 61.2618 9.99344 61.2616 10.1737L61.2608 10.1745ZM81.7484 10.1745V18.3376C81.7484 18.7132 82.0515 19.017 82.4244 19.017H88.0647V17.6574H83.1019V14.9358H86.2601V13.5755H83.1019V10.8547H88.0647V9.49427H82.4252C82.2458 9.49427 82.0738 9.56583 81.9469 9.69323C81.82 9.82063 81.7486 9.9942 81.7484 10.1745ZM75.3068 13.5755H73.051V10.8547H75.3068C76.0535 10.8547 76.6603 11.4654 76.6603 12.2151C76.6603 12.9655 76.0535 13.5755 75.3068 13.5755ZM75.3068 9.49427H72.3743C72.195 9.49427 72.0231 9.56586 71.8963 9.69328C71.7695 9.82069 71.6983 9.99351 71.6983 10.1737V19.0178H73.051V14.9358H75.3068C76.0247 14.9352 76.7129 14.6484 77.2206 14.1383C77.7282 13.6282 78.0138 12.9365 78.0146 12.2151C78.0138 11.4936 77.7282 10.8019 77.2206 10.2918C76.7129 9.7817 76.0247 9.49488 75.3068 9.49427ZM98.6465 9.49427V16.4581L93.0753 9.73856C92.9866 9.63061 92.8668 9.55287 92.7323 9.51598C92.5979 9.47909 92.4554 9.48486 92.3244 9.53249C92.1934 9.58013 92.0802 9.66731 92.0003 9.78209C91.9205 9.89687 91.8779 10.0337 91.8783 10.1737V19.0178H93.2318V12.0532L98.803 18.7727C98.8924 18.8794 99.0121 18.9559 99.1461 18.992C99.2802 19.0281 99.422 19.0221 99.5524 18.9746C99.6829 18.9272 99.7958 18.8407 99.8758 18.7268C99.9558 18.6129 99.9992 18.477 100 18.3376V9.49427H98.6465ZM41.7317 13.5052L39.0422 11.6975V8.78888L43.9032 12.0456L41.7317 13.5052ZM42.8482 14.2556L44.4 13.2121V15.2992L42.8482 14.2556ZM39.0422 16.8138L41.7317 15.0061L43.9032 16.4657L39.0422 19.7232V16.8138ZM35.1117 15.0061L37.8012 16.8138V19.7224L32.9401 16.4657L35.1117 15.0061ZM33.9951 14.2556L32.4434 15.2992V13.2121L33.9951 14.2556ZM37.8012 11.6975L35.1109 13.5052L32.9401 12.0456L37.8012 8.78812V11.6975ZM38.4217 15.7306L36.2266 14.2564L38.4217 12.7815L40.6167 14.2564L38.4217 15.7306ZM45.6297 11.9364C45.6266 11.9189 45.6243 11.9013 45.619 11.8837L45.6099 11.8532C45.6046 11.8379 45.6 11.8227 45.594 11.8082L45.5795 11.7776C45.5733 11.7636 45.5664 11.7499 45.559 11.7364L45.5408 11.7074C45.5036 11.649 45.4569 11.5974 45.4026 11.5547L45.3744 11.5341L45.3646 11.5265L38.7658 7.10481C38.6639 7.03647 38.5442 7 38.4217 7C38.2992 7 38.1795 7.03647 38.0776 7.10481L31.4788 11.5265L31.4682 11.5341L31.4401 11.5555C31.4071 11.5819 31.3766 11.6113 31.3489 11.6433C31.3321 11.6638 31.3164 11.6852 31.3018 11.7074L31.2844 11.7364C31.2765 11.75 31.2694 11.764 31.2631 11.7784C31.2585 11.7883 31.2532 11.7982 31.2494 11.8089C31.2436 11.8237 31.2383 11.8388 31.2335 11.854C31.2297 11.8639 31.2259 11.8738 31.2236 11.8845C31.2194 11.9017 31.2159 11.919 31.213 11.9364L31.2077 11.9631C31.2041 11.9902 31.2023 12.0175 31.2023 12.0448V16.4665C31.2023 16.494 31.2046 16.5207 31.2077 16.5482L31.213 16.5749C31.2159 16.5923 31.2194 16.6096 31.2236 16.6268L31.2335 16.6573L31.2494 16.7031C31.2532 16.7138 31.2585 16.723 31.2631 16.7337C31.274 16.7579 31.287 16.7811 31.3018 16.8031C31.3387 16.8618 31.3855 16.9134 31.4401 16.9558C31.4492 16.9635 31.4583 16.9711 31.4682 16.9772L31.4788 16.9848L38.0776 21.4065C38.1794 21.475 38.2992 21.5116 38.4217 21.5116C38.5442 21.5116 38.664 21.475 38.7658 21.4065L45.3646 16.9848L45.3744 16.9772L45.4026 16.9558C45.4148 16.9463 45.4267 16.9364 45.4382 16.926L45.4626 16.9024C45.5117 16.8537 45.5513 16.7962 45.5795 16.7329L45.594 16.7031C45.5997 16.6881 45.6048 16.6728 45.6091 16.6573L45.6198 16.6268C45.6241 16.6097 45.6277 16.5923 45.6304 16.5749C45.6319 16.5657 45.6342 16.5573 45.635 16.5482C45.6388 16.5211 45.6408 16.4938 45.641 16.4665V12.0448C45.6408 12.0175 45.6387 11.9902 45.635 11.9631L45.6297 11.9364Z" fill="white"/>
</svg>
