<svg width="120" height="28" viewBox="0 0 120 28" fill="none" xmlns="http://www.w3.org/2000/svg">
<rect width="120" height="28" fill="#131417"/>
<path d="M20.7063 10.0436C21.7251 10.0436 22.6595 10.4135 23.3844 11.0261L24.3714 9.84348C23.3459 8.97451 22.0475 8.49848 20.7063 8.49973C17.5601 8.49973 15 11.0729 15 14.2351C15 17.3965 17.5601 19.9688 20.7063 19.9688C22.0475 19.9699 23.3459 19.4939 24.3714 18.625L23.3844 17.4424C22.6351 18.0774 21.6864 18.4254 20.7063 18.4249C19.6008 18.4237 18.5408 17.9819 17.759 17.1963C16.9772 16.4106 16.5374 15.3454 16.536 14.2343C16.5374 13.1231 16.9772 12.0579 17.759 11.2722C18.5408 10.4866 19.6008 10.0448 20.7063 10.0436ZM52.2907 18.0939H49.9867V10.3746H52.2907C53.309 10.3755 54.2853 10.7824 55.0054 11.506C55.7255 12.2296 56.1305 13.2108 56.1317 14.2343C56.1305 15.2577 55.7255 16.2389 55.0054 16.9625C54.2853 17.6861 53.309 18.093 52.2907 18.0939ZM52.2907 8.83069H49.2186C49.0152 8.83069 48.82 8.91193 48.6762 9.05653C48.5323 9.20114 48.4515 9.39726 48.4515 9.60176V18.8659C48.4515 19.2921 48.7946 19.6387 49.2186 19.6387H52.2907C53.7164 19.6373 55.0832 19.0675 56.0913 18.0542C57.0994 17.041 57.6663 15.6672 57.6677 14.2343C57.6661 12.8015 57.0991 11.4279 56.091 10.4148C55.0829 9.40178 53.7162 8.83206 52.2907 8.83069ZM61.8259 9.60263V18.8667C61.8259 19.293 62.1707 19.6378 62.5948 19.6378H68.9949V18.0948H63.3628V15.0062H66.9469V13.4623H63.3628V10.3746H68.9949V8.83069H62.5948C62.3912 8.83069 62.196 8.9119 62.052 9.05648C61.908 9.20106 61.827 9.39718 61.8267 9.60176L61.8259 9.60263ZM85.0768 9.60263V18.8667C85.0768 19.293 85.4207 19.6378 85.8439 19.6378H92.2449V18.0948H86.6128V15.0062H90.1969V13.4623H86.6128V10.3746H92.2449V8.83069H85.8448C85.6412 8.83069 85.446 8.9119 85.302 9.05648C85.158 9.20106 85.077 9.39805 85.0768 9.60263ZM77.7664 13.4623H75.2063V10.3746H77.7664C78.6137 10.3746 79.3024 11.0677 79.3024 11.9184C79.3024 12.7701 78.6137 13.4623 77.7664 13.4623ZM77.7664 8.83069H74.4383C74.2348 8.83069 74.0397 8.91193 73.8958 9.05653C73.7519 9.20114 73.6711 9.39726 73.6711 9.60176V19.6387H75.2063V15.0062H77.7664C78.581 15.0055 79.3621 14.68 79.9382 14.1011C80.5143 13.5222 80.8384 12.7372 80.8393 11.9184C80.8384 11.0996 80.5143 10.3147 79.9382 9.73578C79.3621 9.15689 78.581 8.83138 77.7664 8.83069ZM104.254 8.83069V16.7337L97.9314 9.10793C97.8306 8.98541 97.6947 8.89718 97.5421 8.85532C97.3896 8.81346 97.2279 8.82 97.0791 8.87407C96.9304 8.92813 96.802 9.02706 96.7113 9.15732C96.6207 9.28759 96.5724 9.44281 96.5729 9.60176V19.6387H98.1089V11.7348L104.432 19.3606C104.533 19.4816 104.669 19.5685 104.821 19.6095C104.973 19.6504 105.134 19.6435 105.282 19.5897C105.43 19.5359 105.558 19.4377 105.649 19.3084C105.74 19.1792 105.789 19.025 105.79 18.8667V8.83069H104.254ZM39.6628 13.3826L36.6106 11.331V8.03016L42.1272 11.7261L39.6628 13.3826ZM40.9299 14.2343L42.6909 13.0499V15.4186L40.9299 14.2343ZM36.6106 17.1375L39.6628 15.0859L42.1272 16.7424L36.6106 20.4392V17.1375ZM32.1498 15.0859L35.2021 17.1375V20.4383L29.6854 16.7424L32.1498 15.0859ZM30.8827 14.2343L29.1217 15.4186V13.0499L30.8827 14.2343ZM35.2021 11.331L32.149 13.3826L29.6854 11.7261L35.2021 8.02929V11.331ZM35.9063 15.9081L33.4152 14.2351L35.9063 12.5613L38.3974 14.2351L35.9063 15.9081ZM44.0865 11.6022C44.083 11.5823 44.0804 11.5624 44.0744 11.5424L44.064 11.5078C44.058 11.4905 44.0528 11.4731 44.0459 11.4567L44.0296 11.422C44.0224 11.4061 44.0147 11.3905 44.0063 11.3752L43.9856 11.3423C43.9434 11.276 43.8904 11.2174 43.8287 11.169L43.7968 11.1456L43.7856 11.137L36.2968 6.11895C36.1812 6.04139 36.0453 6 35.9063 6C35.7673 6 35.6315 6.04139 35.5158 6.11895L28.027 11.137L28.0149 11.1456L27.9831 11.1699C27.9456 11.1999 27.911 11.2332 27.8796 11.2695C27.8605 11.2928 27.8427 11.3171 27.8262 11.3423L27.8063 11.3752C27.7975 11.3907 27.7894 11.4066 27.7822 11.4229C27.777 11.4341 27.771 11.4454 27.7667 11.4575C27.7601 11.4743 27.754 11.4914 27.7486 11.5086C27.7443 11.5199 27.74 11.5312 27.7374 11.5433C27.7326 11.5628 27.7286 11.5824 27.7253 11.6022L27.7193 11.6325C27.7152 11.6633 27.7132 11.6942 27.7133 11.7252V16.7433C27.7133 16.7745 27.7158 16.8048 27.7193 16.836L27.7253 16.8663C27.7286 16.8861 27.7327 16.9057 27.7374 16.9252L27.7486 16.9599L27.7667 17.0118C27.771 17.024 27.777 17.0344 27.7822 17.0465C27.7946 17.074 27.8093 17.1004 27.8262 17.1253C27.868 17.1919 27.9211 17.2505 27.9831 17.2986C27.9934 17.3073 28.0037 17.3159 28.0149 17.3229L28.027 17.3315L35.5158 22.3496C35.6314 22.4273 35.7673 22.4689 35.9063 22.4689C36.0454 22.4689 36.1813 22.4273 36.2968 22.3496L43.7856 17.3315L43.7968 17.3229L43.8287 17.2986C43.8426 17.2879 43.8561 17.2766 43.8692 17.2648L43.8968 17.238C43.9525 17.1827 43.9976 17.1175 44.0296 17.0456L44.0459 17.0118C44.0524 16.9948 44.0582 16.9774 44.0632 16.9599L44.0752 16.9252C44.0802 16.9058 44.0842 16.8861 44.0873 16.8663C44.089 16.8559 44.0916 16.8464 44.0925 16.836C44.0968 16.8053 44.0991 16.7743 44.0994 16.7433V11.7252C44.0991 11.6942 44.0968 11.6633 44.0925 11.6325L44.0865 11.6022Z" fill="white"/>
</svg>
