<svg width="114" height="30" viewBox="0 0 114 30" fill="none" xmlns="http://www.w3.org/2000/svg">
<rect width="114" height="30" fill="#0077B5"/>
<path d="M43.3496 17.8164H47.2227V19H41.8672V10.4688H43.3496V17.8164ZM49.9238 19H48.4473V10.4688H49.9238V19ZM58.5137 19H57.0312L53.2285 12.9473V19H51.7461V10.4688H53.2285L57.043 16.5449V10.4688H58.5137V19ZM62.7148 15.3145L61.748 16.3398V19H60.2656V10.4688H61.748V14.4707L62.5684 13.457L65.0645 10.4688H66.8574L63.6875 14.248L67.0391 19H65.2812L62.7148 15.3145ZM72.8223 15.1914H69.3184V17.8164H73.4141V19H67.8359V10.4688H73.373V11.6641H69.3184V14.0195H72.8223V15.1914ZM74.6211 19V10.4688H77.1406C77.8945 10.4688 78.5625 10.6367 79.1445 10.9727C79.7305 11.3086 80.1836 11.7852 80.5039 12.4023C80.8242 13.0195 80.9844 13.7266 80.9844 14.5234V14.9512C80.9844 15.7598 80.8223 16.4707 80.498 17.084C80.1777 17.6973 79.7188 18.1699 79.1211 18.502C78.5273 18.834 77.8457 19 77.0762 19H74.6211ZM76.1035 11.6641V17.8164H77.0703C77.8477 17.8164 78.4434 17.5742 78.8574 17.0898C79.2754 16.6016 79.4883 15.9023 79.4961 14.9922V14.5176C79.4961 13.5918 79.2949 12.8848 78.8926 12.3965C78.4902 11.9082 77.9062 11.6641 77.1406 11.6641H76.1035ZM84.0254 19H82.5488V10.4688H84.0254V19ZM92.6152 19H91.1328L87.3301 12.9473V19H85.8477V10.4688H87.3301L91.1445 16.5449V10.4688H92.6152V19Z" fill="white"/>
</svg>
